<svg width="167" height="106" viewBox="0 0 167 106" fill="none" xmlns="http://www.w3.org/2000/svg">
<g id="Frame 9147">
<rect width="166.934" height="105.939" transform="scale(1.00039)" fill="white"/>
<path id="Vector" d="M83.4994 33.721C79.6884 33.721 75.9629 34.8511 72.7941 36.9684C69.6253 39.0857 67.1555 42.0952 65.697 45.6162C64.2386 49.1372 63.857 53.0115 64.6005 56.7494C65.344 60.4873 67.1792 63.9207 69.8741 66.6155C72.5689 69.3104 76.0024 71.1456 79.7402 71.8891C83.4781 72.6326 87.3525 72.251 90.8734 70.7926C94.3944 69.3341 97.4039 66.8644 99.5212 63.6956C101.639 60.5268 102.769 56.8013 102.769 52.9902C102.769 47.8797 100.739 42.9785 97.1248 39.3648C93.5111 35.7511 88.61 33.721 83.4994 33.721ZM80.7467 60.6841L73.8648 53.8022L76.0533 51.6138L80.7467 56.3072L90.9456 46.1083L93.1423 48.2912L80.7467 60.6841Z" fill="#627E28"/>
</g>
</svg>
