<svg width="12" height="8" viewBox="0 0 12 8" fill="none" xmlns="http://www.w3.org/2000/svg">
<path id="Vector" fill-rule="evenodd" clip-rule="evenodd" d="M6.6483 7.69458C6.47928 7.89014 6.25007 8 6.01108 8C5.77208 8 5.54287 7.89014 5.37385 7.69458L0.275159 1.79348C0.189075 1.69725 0.120411 1.58214 0.0731743 1.45487C0.0259377 1.32761 0.00107397 1.19072 3.40301e-05 1.05222C-0.00100591 0.913706 0.0217989 0.776345 0.0671174 0.648146C0.112436 0.519946 0.179361 0.403476 0.263987 0.305532C0.348613 0.207587 0.449245 0.13013 0.560013 0.0776796C0.67078 0.0252291 0.789464 -0.00116422 0.909139 3.93863e-05C1.02881 0.00124299 1.14708 0.0300196 1.25705 0.0846901C1.36701 0.139361 1.46646 0.21883 1.54961 0.318461L6.01108 5.48206L10.4725 0.318461C10.6425 0.128443 10.8702 0.0232993 11.1065 0.0256761C11.3428 0.0280528 11.5689 0.13776 11.736 0.331168C11.9031 0.524577 11.9979 0.786212 12 1.05972C12.002 1.33323 11.9112 1.59674 11.747 1.79348L6.6483 7.69458Z" fill="#333333"/>
</svg>
