<svg width="167" height="106" viewBox="0 0 167 106" fill="none" xmlns="http://www.w3.org/2000/svg">
<g id="Frame 9147">
<mask id="path-1-inside-1_646_180" fill="white">
<path d="M0 0H167V105.981H0V0Z"/>
</mask>
<path d="M0 0H167V105.981H0V0Z" fill="white"/>
<path d="M167 0H163.788V105.981H167H170.211V0H167ZM0 105.981H3.21153V0H0H-3.21153V105.981H0Z" fill="#BCBCBC" mask="url(#path-1-inside-1_646_180)"/>
<path id="Vector" d="M83.4994 33.7212C79.6884 33.7212 75.9629 34.8513 72.7941 36.9687C69.6253 39.086 67.1555 42.0954 65.697 45.6164C64.2386 49.1374 63.857 53.0118 64.6005 56.7496C65.344 60.4875 67.1792 63.9209 69.8741 66.6158C72.5689 69.3106 76.0024 71.1459 79.7402 71.8894C83.4781 72.6329 87.3525 72.2513 90.8734 70.7928C94.3944 69.3344 97.4039 66.8646 99.5212 63.6958C101.639 60.527 102.769 56.8015 102.769 52.9904C102.769 47.8799 100.739 42.9787 97.1248 39.365C93.5111 35.7514 88.61 33.7212 83.4994 33.7212ZM80.7467 60.6843L73.8648 53.8025L76.0533 51.614L80.7467 56.3075L90.9456 46.1086L93.1423 48.2915L80.7467 60.6843Z" fill="#627E28"/>
</g>
</svg>
