<svg width="45" height="45" viewBox="0 0 45 45" fill="none" xmlns="http://www.w3.org/2000/svg">
<g id="Group 289417">
<circle id="Ellipse 122" cx="22.5" cy="22.5" r="22.5" fill="#0790C5"/>
<path id="Vector" d="M15.4085 21.6983C17.3067 25.4288 20.3649 28.487 24.0954 30.3851L26.9954 27.4851C27.3644 27.1161 27.8785 27.0106 28.3399 27.1556C29.8163 27.6433 31.3981 27.907 33.0458 27.907C33.3954 27.907 33.7307 28.0458 33.9779 28.293C34.2251 28.5403 34.364 28.8755 34.364 29.2251V33.8388C34.364 34.1884 34.2251 34.5237 33.9779 34.7709C33.7307 35.0181 33.3954 35.157 33.0458 35.157C27.1025 35.157 21.4027 32.796 17.2002 28.5935C12.9977 24.391 10.6367 18.6911 10.6367 12.7479C10.6367 12.3983 10.7756 12.063 11.0228 11.8158C11.27 11.5686 11.6053 11.4297 11.9549 11.4297H16.5685C16.9181 11.4297 17.2534 11.5686 17.5006 11.8158C17.7478 12.063 17.8867 12.3983 17.8867 12.7479C17.8867 14.3956 18.1504 15.9774 18.6381 17.4538C18.7831 17.9151 18.6776 18.4292 18.3085 18.7983L15.4085 21.6983Z" fill="white"/>
</g>
</svg>
